REM DIRINDEX 1\2,1\3,1\4,1\5
REM DIRNAME "folder01","folder02","folder03","folder04","folder05"
TITLE ""
FILE "1Q_t_1119-1128.mp3" MP3
  TRACK 01 AUDIO
    TITLE "0:"
    INDEX 01 00:00:00
  TRACK 02 AUDIO
    TITLE "2:cjc172_4321"
    INDEX 01 00:00:08
  TRACK 03 AUDIO
    TITLE "0:"
    INDEX 01 00:01:14
  TRACK 04 AUDIO
    TITLE "3:cjc172_4322"
    INDEX 01 00:01:57
  TRACK 05 AUDIO
    TITLE "0:"
    INDEX 01 00:03:07
  TRACK 06 AUDIO
    TITLE "4:cjc172_4323"
    INDEX 01 00:03:15
  TRACK 07 AUDIO
    TITLE "0:"
    INDEX 01 00:04:12
  TRACK 08 AUDIO
    TITLE "5:cjc172_4324"
    INDEX 01 00:04:16
  TRACK 09 AUDIO
    TITLE "0:"
    INDEX 01 00:08:53
  TRACK 10 AUDIO
    TITLE "3:cjc172_4325"
    INDEX 01 00:09:25
  TRACK 11 AUDIO
    TITLE "0:"
    INDEX 01 00:10:40
  TRACK 12 AUDIO
    TITLE "4:cjc172_4326"
    INDEX 01 00:10:48
  TRACK 13 AUDIO
    TITLE "0:"
    INDEX 01 00:12:15
  TRACK 14 AUDIO
    TITLE "5:cjc172_4327"
    INDEX 01 00:12:23
  TRACK 15 AUDIO
    TITLE "0:"
    INDEX 01 00:16:17
  TRACK 16 AUDIO
    TITLE "3:cjc172_4328"
    INDEX 01 00:16:62
  TRACK 17 AUDIO
    TITLE "0:"
    INDEX 01 00:18:02
  TRACK 18 AUDIO
    TITLE "4:cjc172_4329"
    INDEX 01 00:18:10
  TRACK 19 AUDIO
    TITLE "0:"
    INDEX 01 00:19:37
  TRACK 20 AUDIO
    TITLE "5:cjc172_4330"
    INDEX 01 00:19:43
  TRACK 21 AUDIO
    TITLE "0:"
    INDEX 01 00:23:51
  TRACK 22 AUDIO
    TITLE "3:cjc172_4331"
    INDEX 01 00:24:21
  TRACK 23 AUDIO
    TITLE "0:"
    INDEX 01 00:25:40
  TRACK 24 AUDIO
    TITLE "4:cjc172_4332"
    INDEX 01 00:25:47
  TRACK 25 AUDIO
    TITLE "0:"
    INDEX 01 00:27:52
  TRACK 26 AUDIO
    TITLE "5:cjc172_4333"
    INDEX 01 00:27:58
  TRACK 27 AUDIO
    TITLE "0:"
    INDEX 01 00:32:08
  TRACK 28 AUDIO
    TITLE "3:cjc172_4334"
    INDEX 01 00:32:53
  TRACK 29 AUDIO
    TITLE "0:"
    INDEX 01 00:33:74
  TRACK 30 AUDIO
    TITLE "4:cjc172_4335"
    INDEX 01 00:34:05
  TRACK 31 AUDIO
    TITLE "0:"
    INDEX 01 00:35:16
  TRACK 32 AUDIO
    TITLE "5:cjc172_4336"
    INDEX 01 00:35:22
  TRACK 33 AUDIO
    TITLE "0:"
    INDEX 01 00:38:68
  TRACK 34 AUDIO
    TITLE "3:cjc172_4337"
    INDEX 01 00:39:38
  TRACK 35 AUDIO
    TITLE "0:"
    INDEX 01 00:40:47
  TRACK 36 AUDIO
    TITLE "4:cjc172_4338"
    INDEX 01 00:40:55
  TRACK 37 AUDIO
    TITLE "0:"
    INDEX 01 00:43:22
  TRACK 38 AUDIO
    TITLE "5:cjc172_4339"
    INDEX 01 00:43:28
  TRACK 39 AUDIO
    TITLE "0:"
    INDEX 01 00:47:69
  TRACK 40 AUDIO
    TITLE "3:cjc172_4340"
    INDEX 01 00:48:41
  TRACK 41 AUDIO
    TITLE "0:"
    INDEX 01 00:49:36
  TRACK 42 AUDIO
    TITLE "4:cjc172_4341"
    INDEX 01 00:49:44
  TRACK 43 AUDIO
    TITLE "0:"
    INDEX 01 00:50:51
  TRACK 44 AUDIO
    TITLE "5:cjc172_4342"
    INDEX 01 00:50:57
  TRACK 45 AUDIO
    TITLE "0:"
    INDEX 01 00:55:03
  TRACK 46 AUDIO
    TITLE "3:cjc172_4343"
    INDEX 01 00:55:49
  TRACK 47 AUDIO
    TITLE "0:"
    INDEX 01 00:56:50
  TRACK 48 AUDIO
    TITLE "4:cjc172_4344"
    INDEX 01 00:56:58
  TRACK 49 AUDIO
    TITLE "0:"
    INDEX 01 00:59:35
  TRACK 50 AUDIO
    TITLE "5:cjc172_4345"
    INDEX 01 00:59:40
  TRACK 51 AUDIO
    TITLE "0:"
    INDEX 01 01:04:26
  TRACK 52 AUDIO
    TITLE "3:cjc172_4346"
    INDEX 01 01:04:71
  TRACK 53 AUDIO
    TITLE "0:"
    INDEX 01 01:06:13
  TRACK 54 AUDIO
    TITLE "4:cjc172_4347"
    INDEX 01 01:06:21
  TRACK 55 AUDIO
    TITLE "0:"
    INDEX 01 01:07:24
  TRACK 56 AUDIO
    TITLE "5:cjc172_4348"
    INDEX 01 01:07:30
  TRACK 57 AUDIO
    TITLE "0:"
    INDEX 01 01:12:02
  TRACK 58 AUDIO
    TITLE "3:cjc172_4349"
    INDEX 01 01:12:47
  TRACK 59 AUDIO
    TITLE "0:"
    INDEX 01 01:13:43
  TRACK 60 AUDIO
    TITLE "4:cjc172_4350"
    INDEX 01 01:13:50
  TRACK 61 AUDIO
    TITLE "0:"
    INDEX 01 01:14:58
  TRACK 62 AUDIO
    TITLE "5:cjc172_4351"
    INDEX 01 01:14:64
  TRACK 63 AUDIO
    TITLE "0:"
    INDEX 01 01:20:03
